<?xml version="1.0" encoding="UTF-8"?>
<svg id="Capa_1" data-name="Capa 1" xmlns="http://www.w3.org/2000/svg" viewBox="0 0 1932.1 2014.13">
  <g>
    <rect x=".05" width="1932" height="1288" style="fill: #02b7e4;"/>
    <path d="M1932.05,461.85c-45.75-4.07-92.25,9.87-95.52,64.27-15.38-31.43-50-42.74-84.24-35.6,16.23-46.21,.9-101.75-36.76-133.08s-89.21-34.05-131.69-9.69c-22.21,12.75-36.14,33.28-45.65,54.15-21.56-24.52-58.58-34.05-89.31-23.06-30.73,11.03-53.25,41.91-54.33,74.52-4.15-9.87-13.7-17.26-24.29-18.78s-19.91,6.75-26.66,15.04c-21.35-27.41-59.66-40.34-93.25-31.45-33.59,8.86-58.27,37.27-63.32,71.66-13.78-17.98-37.58-27.72-60.02-24.52-22.44,3.17-42.61,19.14-50.85,40.24-15.79-15.38-40.31-21.07-61.28-14.25-20.94,6.83-37.43,25.86-41.14,47.6-20.79-34.6-63.14-55.67-101.13-42.09-7.57-41.58-42.74-76.71-84.34-84.21-41.6-7.52-86.84,13.09-108.45,49.41-5.26-12.24-17.03-21.46-30.19-23.62-13.14-2.16-27.74-.08-36.66,9.81,1.31-70.97-52.34-139.18-121.64-154.59-69.29-15.4-144.41,28.62-173.29,93.48-11.62-23.44-37.61-39-63.78-38.12-26.17,.88-51.08,18.06-61.15,42.22-4.82-16.31-17.47-30.11-33.28-36.37-15.82-6.23-28.21-3.22-42.86,5.41-11.75-28.18-38.79-49.38-68.96-54.04-16.18-2.5-32.9-.18-47.97,6.08v975.71H1932.05V461.85Z" style="fill: #25c1e7;"/>
    <path d="M1932.05,534.52c-8.55-2.22-17.41-3.22-26.43-2.81-40.93,1.85-79.52,41.29-71.17,81.43-28.9-10.05-64.63,10.56-69.65,40.75-37.82-16.72-85.78,.64-106.13,36.63-14.3-28.72-51.06-40.37-77.36-22,9.53-27.9-8.81-60.2-36.61-68.75-14.94-4.59-31.92-2.01-44.82,6.8-.59-55.31-84.31-69.47-115.17-18.42-24.5-10.43-53.14,1.24-60.23,26.74-20.66-18.06-49.36-26.56-76.51-22.75-27.18,3.84-48.89,28.62-63.78,51.67-1.18-12.73-11.64-23.98-24.21-26.15-12.6-2.16-26.2,5-31.56,16.59-31.5-18.42-76.89-6.47-95.26,25.06-17.26-16.36-48.97-16.1-69.55-4.17-11.82-33.18-45.03-57.6-80.22-58.99-35.21-1.42-70.25,20.27-84.7,52.4-18.16-20.27-46.32-31.14-73.39-28.36-27.07,2.81-55.54,19.4-69.17,42.94-15.95-19.53-44.51-29.68-68.88-22.1-20.48,6.36-36.89,23.21-45,43.07-5.49-16.87-18.68-31.5-36.73-34.44-13.6-2.22-28.16,2.6-37.74,12.52-.26-12.52-7.57-24.65-18.5-30.73-10.95-6.08-25.12-5.9-35.88,.49-1.29-24.29-16.85-52.32-40.29-61.21-24.58-9.33-54.97,.39-69.6,22.23-7.93-27.15-41.63-43.43-67.83-32.77,7.14-21.2-2.89-46.83-22.51-57.6-19.63-10.74-46.6-5.41-60.66,12.03-14.53-28.16-33.64-49.41-67.16-51.11,2.16-35.96-13.55-72.54-41.09-95.75-12.83-10.82-28.08-18.55-44.26-22.95v943.18H1932V534.52h.05Z" style="fill: #5bcae5;"/>
    <path d="M1932.05,719.61c-40.24-1.39-87.56,27.13-86.19,66.74-19.86-14.45-47.84-16.8-69.84-5.82-21.97,10.95-31.4,29.31-31.81,53.86-13.81-13.7-34.08-20.58-53.35-18.11-19.29,2.47-37.17,14.22-47.09,30.96-6.85-12-19.89-20.25-33.67-21.23-13.78-1-23-3.63-31.5,7.26-13.73-27.05-34.49-51.19-61.39-65.25s-60.23-17.1-87.82-4.46c-27.59,12.65-45.39,38.23-43.46,68.52-19.53-15.74-47.78-19.78-70.94-10.18-23.16,9.61-40.21,32.51-42.84,57.44-20.84-10.36-42.53-4.4-57.24,13.63-11.72-20.17-36.37-31.97-59.43-28.44s-43.04,22.18-48.17,44.93c-17.36-40.08-59.76-67.18-103.17-62.52,3.07-16.98-4.38-35.39-18.39-45.47-13.99-10.07-33.85-11.26-48.94-2.96-9.33-18.16-28.23-31.02-48.56-33.02-20.32-1.98-39.75,3.66-52.4,19.65-15.04-33.72-54.46-54.61-90.8-48.12-36.35,6.49-66.13,39.72-68.57,76.56-12.75-13.06-31.66-19.81-49.79-17.77-18.14,2.06-35.99,10.92-45.49,26.51-14.43-26.82-43.79-44.93-74.21-45.8-30.45-.88-60.79,15.53-76.71,41.5-7.93-28.18-37.71-51.34-65.15-41.09-17.88-30.89-57.08-47.71-91.78-39.41-34.7,8.32-66.15,44.05-68.11,79.68-3.07-18.7-16.31-35.39-33.82-42.61-17.52-7.24-38.67-4.77-54.04,6.31-1.73-11.9-10.61-22.49-22.02-26.28-11.44-3.79-28.28,1.44-36.79,9.97-5.77-21.17-21.25-39.49-41.14-48.71-5.51-2.55-11.33-4.38-17.31-5.51v577.62H1932.1V719.61h-.05Z" style="fill: #7dd3e4;"/>
    <path d="M1932.05,859.66c-21.66,9.07-37.89,27.77-39.7,53.74-10.28-14.37-28.85-22.39-46.37-19.99-17.52,2.4-34.83,9.66-40.86,26.28-22.93-17.31-55.15-21.48-81.74-10.59-26.58,10.9-46.6,36.48-50.8,64.92-27.2-17.05-65.07-5.41-79.16,23.44-27.82-19.89-64.92-26.2-97.73-16.59-32.82,9.61-64.5,35.99-77.2,67.75-29.42-20.74-75.91-9.97-93.17,21.61-15.2-8.73-33.85-14.4-49.64-6.83-13.81-30.11-43.59-52.32-76.4-56.9-32.79-4.61-67.57,8.55-89.1,33.69-21.82-26.46-71.38-43.07-100.64-25.19-6.41-25.43-26.76-46.86-51.8-54.59s-53.94-1.52-73.57,15.87c-25.84-23.31-69.91-29.93-98.43-10.02-3.17-29.7-36.06-52.42-64.97-44.87-24.32-39.98-74.78-62.13-120.66-52.96-45.88,9.14-86.86,49.67-93.97,95.9-26.89-19.06-64.32-22.1-93.92-7.6-29.62,14.48-49.74,45.72-51.21,78.65-13.32-22.05-37.33-37.27-62.96-39.9-25.61-2.63-54.38,5.56-71.92,24.45,.72-12.24-7.65-24.45-19.32-28.16-11.67-3.74-25.58,1.37-32.07,11.75-14.4-21.54-41.47-30.58-63.01-16.18-12.88-30.83-40.08-55.36-72.08-64.97-12.8-3.84-26.25-5.23-39.59-4.38v370.02H1932.05v-428.34h0Z" style="fill: #99d9e3;"/>
    <path d="M1932.05,1078.08c-1.03,.82-2.03,1.65-3.04,2.5-28.59,24.39-47.4,58.04-65.64,90.91-28.88-25.43-66.41-26.48-89.8,4.07-10.46-15.35-29.75-24.24-48.22-22.18-18.47,2.04-35.34,14.92-42.19,32.2-13.19-20.69-46.96-21.84-62.26-2.68-10.48-40.08-51-70.09-92.4-68.47s-78.18,34.39-85.5,75.17c-17.72-13.01-41.04-18.08-62.57-13.65-21.54,4.43-40.93,18.29-52.11,37.22-14.86-18.75-38.41-27.38-60.2-17.49-3.79-17.83-18.32-32.92-35.99-37.4-17.67-4.48-37.64,1.88-49.46,15.77-10.84-10.64-27.49-14.99-42.14-11.05-14.68,3.97-26.87,16.07-30.89,30.73-20.35-23.62-55.44-31.84-79.01-11.41-12-33.93-45.13-59.33-81.02-62.11-35.88-2.78-72.54,17.21-89.62,48.89-9.56-13.86-26.09-22.64-42.94-22.82-16.85-.15-28.77,11.8-38.59,25.5-15.87-24.47-44.69-39.93-73.85-39.62-29.16,.31-55.13,17.21-70.45,42.01-17.26-14.5-41.68-19.99-63.5-14.3-21.82,5.69-40.42,22.44-48.38,43.53-25.04-17.34-56.05-23.49-81.12-6.23-19.29-18.19-47.37-26.64-73.49-22.08-26.12,4.53-50.49,18.44-62.49,42.07-32.23-28.93-84.72-32.02-120.09-7.06-19.86-17.85-49.77-26.58-76.22-22.85-19.78-44.54-61.72-77.9-108.81-89.75v190.5H1932.05v-209.92Z" style="fill: #b0e2e9;"/>
  </g>
  <rect x="3.33" y="1275" width="1925.55" height="739.13" style="fill: #b0e2e9;"/>
</svg>