<?xml version="1.0" encoding="utf-8"?>
<!-- Generator: Adobe Illustrator 27.0.0, SVG Export Plug-In . SVG Version: 6.00 Build 0)  -->
<svg version="1.1" id="BACKGROUND2" xmlns="http://www.w3.org/2000/svg" xmlns:xlink="http://www.w3.org/1999/xlink" x="0px"
	 y="0px" viewBox="0 0 750 500" style="enable-background:new 0 0 750 500;" xml:space="preserve">
<style type="text/css">
	.st0{fill:#02B7E4;}
	.st1{fill:#25C1E7;}
	.st2{fill:#5BCAE5;}
	.st3{fill:#7DD3E4;}
	.st4{fill:#99D9E3;}
	.st5{fill:#B0E2E9;}
</style>
<g>
	<rect class="st0" width="750" height="500"/>
	<path class="st1" d="M750,179.29c-17.76-1.58-35.81,3.83-37.08,24.95c-5.97-12.2-19.41-16.59-32.7-13.82
		c6.3-17.94,0.35-39.5-14.27-51.66c-14.62-12.16-34.63-13.22-51.12-3.76c-8.62,4.95-14.03,12.92-17.72,21.02
		c-8.37-9.52-22.74-13.22-34.67-8.95c-11.93,4.28-20.67,16.27-21.09,28.93c-1.61-3.83-5.32-6.7-9.43-7.29
		c-4.11-0.59-7.73,2.62-10.35,5.84c-8.29-10.64-23.16-15.66-36.2-12.21c-13.04,3.44-22.62,14.47-24.58,27.82
		c-5.35-6.98-14.59-10.76-23.3-9.52c-8.71,1.23-16.54,7.43-19.74,15.62c-6.13-5.97-15.65-8.18-23.79-5.53
		c-8.13,2.65-14.53,10.04-15.97,18.48c-8.07-13.43-24.51-21.61-39.26-16.34c-2.94-16.14-16.59-29.78-32.74-32.69
		c-16.15-2.92-33.71,5.08-42.1,19.18c-2.04-4.75-6.61-8.33-11.72-9.17c-5.1-0.84-10.77-0.03-14.23,3.81
		c0.51-27.55-20.32-54.03-47.22-60.01c-26.9-5.98-56.06,11.11-67.27,36.29c-4.51-9.1-14.6-15.14-24.76-14.8s-19.83,7.01-23.74,16.39
		c-1.87-6.33-6.78-11.69-12.92-14.12c-6.14-2.42-10.95-1.25-16.64,2.1c-4.56-10.94-15.06-19.17-26.77-20.98
		C12.34,117.9,5.85,118.8,0,121.23V500h750V179.29z"/>
	<path class="st2" d="M750,207.5c-3.32-0.86-6.76-1.25-10.26-1.09c-15.89,0.72-30.87,16.03-27.63,31.61
		c-11.22-3.9-25.09,4.1-27.04,15.82c-14.68-6.49-33.3,0.25-41.2,14.22c-5.55-11.15-19.82-15.67-30.03-8.54
		c3.7-10.83-3.42-23.37-14.21-26.69c-5.8-1.78-12.39-0.78-17.4,2.64C582,214,549.5,208.5,537.52,228.32
		c-9.51-4.05-20.63,0.48-23.38,10.38c-8.02-7.01-19.16-10.31-29.7-8.83c-10.55,1.49-18.98,11.11-24.76,20.06
		c-0.46-4.94-4.52-9.31-9.4-10.15c-4.89-0.84-10.17,1.94-12.25,6.44c-12.23-7.15-29.85-2.51-36.98,9.73
		c-6.7-6.35-19.01-6.25-27-1.62c-4.59-12.88-17.48-22.36-31.14-22.9c-13.67-0.55-27.27,7.87-32.88,20.34
		c-7.05-7.87-17.98-12.09-28.49-11.01c-10.51,1.09-21.56,7.53-26.85,16.67c-6.19-7.58-17.28-11.52-26.74-8.58
		c-7.95,2.47-14.32,9.01-17.47,16.72c-2.13-6.55-7.25-12.23-14.26-13.37c-5.28-0.86-10.93,1.01-14.65,4.86
		c-0.1-4.86-2.94-9.57-7.18-11.93c-4.25-2.36-9.75-2.29-13.93,0.19c-0.5-9.43-6.54-20.31-15.64-23.76
		c-9.54-3.62-21.34,0.15-27.02,8.63c-3.08-10.54-16.16-16.86-26.33-12.72c2.77-8.23-1.12-18.18-8.74-22.36
		c-7.62-4.17-18.09-2.1-23.55,4.67c-5.64-10.93-13.06-19.18-26.07-19.84c0.84-13.96-5.26-28.16-15.95-37.17
		c-4.98-4.2-10.9-7.2-17.18-8.91V500h750V207.5z"/>
	<path class="st3" d="M750,279.35c-15.62-0.54-33.99,10.53-33.46,25.91c-7.71-5.61-18.57-6.52-27.11-2.26
		c-8.53,4.25-12.19,11.38-12.35,20.91c-5.36-5.32-13.23-7.99-20.71-7.03c-7.49,0.96-14.43,5.52-18.28,12.02
		c-2.66-4.66-7.72-7.86-13.07-8.24c-5.35-0.39-8.93-1.41-12.23,2.82c-5.33-10.5-13.39-19.87-23.83-25.33
		c-10.44-5.46-23.38-6.64-34.09-1.73c-10.71,4.91-17.62,14.84-16.87,26.6c-7.58-6.11-18.55-7.68-27.54-3.95
		c-8.99,3.73-15.61,12.62-16.63,22.3c-8.09-4.02-16.51-1.71-22.22,5.29c-4.55-7.83-14.12-12.41-23.07-11.04
		c-8.95,1.37-16.71,8.61-18.7,17.44c-6.74-15.56-23.2-26.08-40.05-24.27c1.19-6.59-1.7-13.74-7.14-17.65
		c-5.43-3.91-13.14-4.37-19-1.15c-3.62-7.05-10.96-12.04-18.85-12.82c-7.89-0.77-15.43,1.42-20.34,7.63
		c-5.84-13.09-21.14-21.2-35.25-18.68c-14.11,2.52-25.67,15.42-26.62,29.72c-4.95-5.07-12.29-7.69-19.33-6.9
		c-7.04,0.8-13.97,4.24-17.66,10.29c-5.6-10.41-17-17.44-28.81-17.78c-11.82-0.34-23.6,6.03-29.78,16.11
		c-3.08-10.94-14.64-19.93-25.29-15.95c-6.94-11.99-22.16-18.52-35.63-15.3c-13.47,3.23-25.68,17.1-26.44,30.93
		c-1.19-7.26-6.33-13.74-13.13-16.54c-6.8-2.81-15.01-1.85-20.98,2.45c-0.67-4.62-4.12-8.73-8.55-10.2
		c-4.44-1.47-10.98,0.56-14.28,3.87c-2.24-8.22-8.25-15.33-15.97-18.91c-2.14-0.99-4.4-1.7-6.72-2.14V500h750V279.35z"/>
	<path class="st4" d="M750,333.72c-8.41,3.52-14.71,10.78-15.41,20.86c-3.99-5.58-11.2-8.69-18-7.76
		c-6.8,0.93-13.52,3.75-15.86,10.2c-8.9-6.72-21.41-8.34-31.73-4.11c-10.32,4.23-18.09,14.16-19.72,25.2
		c-10.56-6.62-25.26-2.1-30.73,9.1c-10.8-7.72-25.2-10.17-37.94-6.44s-25.04,13.97-29.97,26.3c-11.42-8.05-29.47-3.87-36.17,8.39
		c-5.9-3.39-13.14-5.59-19.27-2.65c-5.36-11.69-16.92-20.31-29.66-22.09c-12.73-1.79-26.23,3.32-34.59,13.08
		c-8.47-10.27-27.71-16.72-39.07-9.78c-2.49-9.87-10.39-18.19-20.11-21.19s-20.94-0.59-28.56,6.16
		c-10.03-9.05-27.14-11.62-38.21-3.89c-1.23-11.53-14-20.35-25.22-17.42c-9.44-15.52-29.03-24.12-46.84-20.56
		c-17.81,3.55-33.72,19.28-36.48,37.23c-10.44-7.4-24.97-8.58-36.46-2.95c-11.5,5.62-19.31,17.75-19.88,30.53
		c-5.17-8.56-14.49-14.47-24.44-15.49c-9.94-1.02-21.11,2.16-27.92,9.49c0.28-4.75-2.97-9.49-7.5-10.93
		c-4.53-1.45-9.93,0.53-12.45,4.56c-5.59-8.36-16.1-11.87-24.46-6.28c-5-11.97-15.56-21.49-27.98-25.22
		c-4.97-1.49-10.19-2.03-15.37-1.7V500h750V333.72z"/>
	<path class="st5" d="M750,418.51c-0.4,0.32-0.79,0.64-1.18,0.97c-11.1,9.47-18.4,22.53-25.48,35.29
		c-11.21-9.87-25.78-10.28-34.86,1.58c-4.06-5.96-11.55-9.41-18.72-8.61c-7.17,0.79-13.72,5.79-16.38,12.5
		c-5.12-8.03-18.23-8.48-24.17-1.04c-4.07-15.56-19.8-27.21-35.87-26.58c-16.07,0.63-30.35,13.35-33.19,29.18
		c-6.88-5.05-15.93-7.02-24.29-5.3s-15.89,7.1-20.23,14.45c-5.77-7.28-14.91-10.63-23.37-6.79c-1.47-6.92-7.11-12.78-13.97-14.52
		c-6.86-1.74-14.61,0.73-19.2,6.12c-4.21-4.13-10.67-5.82-16.36-4.29c-5.7,1.54-10.43,6.24-11.99,11.93
		c-7.9-9.17-21.52-12.36-30.67-4.43c-4.66-13.17-17.52-23.03-31.45-24.11c-13.93-1.08-28.16,6.68-34.79,18.98
		c-3.71-5.38-10.13-8.79-16.67-8.86c-6.54-0.06-11.17,4.58-14.98,9.9c-6.16-9.5-17.35-15.5-28.67-15.38
		c-11.32,0.12-21.4,6.68-27.35,16.31c-6.7-5.63-16.18-7.76-24.65-5.55c-8.47,2.21-15.69,8.71-18.78,16.9
		c-9.72-6.73-21.76-9.12-31.49-2.42c-7.49-7.06-18.39-10.34-28.53-8.57c-10.14,1.76-19.6,7.16-24.26,16.33
		c-12.51-11.23-32.89-12.43-46.62-2.74c-7.71-6.93-19.32-10.32-29.59-8.87C34.56,443.6,18.28,430.65,0,426.05V500h750V418.51z"/>
</g>
</svg>
